<svg viewBox="525 -4 305 442" fill="none" xmlns="http://www.w3.org/2000/svg">
<path d="M697.249 320.274C717.571 320.274 734.045 303.804 734.045 283.487C734.045 263.17 717.571 246.7 697.249 246.7C676.927 246.7 660.453 263.17 660.453 283.487C660.453 303.804 676.927 320.274 697.249 320.274Z" fill="#C85840"/>
<path d="M699.71 179.412C688.282 179.412 677.048 180.46 666.691 183.822C637.157 193.445 643.176 227.186 671.736 218.757C680.63 216.126 689.939 214.323 699.71 214.323C749.446 214.323 789.776 254.642 789.776 304.366C789.776 354.089 749.446 394.408 699.71 394.408C649.975 394.408 613.666 353.943 609.645 304.366C607.55 278.517 574.726 281.124 574.726 304.366C574.726 373.384 630.675 429.319 699.71 429.319C768.746 429.319 824.695 373.384 824.695 304.366C824.695 235.348 768.746 179.412 699.71 179.412Z" fill="#EAF1FA"/>
<path d="M589.517 254.009C599.508 260.757 620.757 241.925 623.267 239.684C629.262 234.373 640.544 224.36 638.522 212.861C637.279 205.796 631.674 201.679 631.114 201.314C624.193 196.417 616.005 198.317 613.081 198.999C598.777 202.312 591.856 216.028 590.419 218.879C584.765 230.061 581.597 248.674 589.493 254.009H589.517Z" fill="#406D96"/>
<path d="M556.206 244.898C553.208 234.008 553.818 197.537 581.037 164.941C601.092 140.92 625.265 131.345 641.373 124.963C654.483 119.773 654.434 121.527 727.222 104.62C748.593 99.6502 759.778 96.8973 773.424 89.4668C776.129 87.9807 799.109 75.2393 810.781 60.1104C811.39 59.3308 813.486 56.5535 813.754 56.7241C814.363 57.1139 805.517 73.1442 798.938 81.8902C792.456 90.4657 779.59 103.426 730.341 117.386C686.235 129.908 684.553 122.916 652.436 134.61C634.087 141.285 613.52 149.032 594.171 168.376C589.688 172.859 573.946 188.913 566.245 211.448C563.516 219.463 558.959 232.765 559.69 245.921C559.788 247.48 560.153 252.913 559.398 253.034C558.545 253.181 556.717 246.579 556.254 244.873L556.206 244.898Z" fill="#C85840"/>
<path d="M548.53 148.691C550.309 147.132 557.522 129.348 568.755 115.754C580.891 101.039 594.756 89.4912 602.116 84.838C622.512 71.9504 638.156 61.1823 677.876 49.659C692.449 45.42 728.221 36.3573 746.059 25.3212C746.059 25.3212 754.734 19.9372 770.963 2.05534C771.499 1.47065 772.498 0.32563 772.279 0.0576465C771.621 -0.770667 759.876 7.58556 758.487 8.56005C738.675 22.4465 686.04 31.1438 655.311 39.1102C596.511 54.3609 566.513 80.3066 558.837 87.3473C558.837 87.3473 539.124 105.375 531.228 133.441C527.11 148.107 530.741 151.639 531.764 152.467C534.079 154.343 538.856 155.123 541.95 153.539C543.364 152.833 545.849 150.884 546.239 150.592C546.239 150.592 547.433 149.666 548.53 148.691Z" fill="#406D96"/>
</svg>
