<svg width="1328" height="681" viewBox="0 0 1328 681" fill="none" xmlns="http://www.w3.org/2000/svg">
<path d="M181.081 429.197C166.508 433.509 149.646 435.678 130.517 435.678C111.387 435.678 93.9398 432.389 78.2223 425.787C62.5047 419.184 49.0534 410.146 37.8928 398.672C26.7321 387.197 18.1301 373.652 12.0868 358.084C6.04346 342.517 3.04614 325.634 3.04614 307.435C3.04614 289.237 6.11658 272.354 12.2574 256.786C18.3982 241.219 26.9758 227.795 38.0146 216.54C49.0534 205.285 62.2854 196.465 77.7593 190.107C93.2331 183.748 110.291 180.557 128.933 180.557C145.308 180.557 160.319 183.066 173.965 188.061C186.247 192.568 201.209 201.021 211.687 208.963C213.491 210.328 213.661 212.983 212.053 214.591C210.688 215.955 208.544 216.077 207.057 214.859C201.916 210.669 193.874 205.333 188.805 202.532C182.786 199.243 176.402 196.441 169.701 194.175C162.999 191.91 156.103 190.204 149.061 189.059C142.018 187.914 135.195 187.354 128.591 187.354C110.851 187.354 94.6952 190.472 80.1473 196.733C65.5995 202.995 53.1473 211.57 42.7908 222.484C32.4343 233.399 24.4902 246.14 18.9099 260.684C13.3296 275.228 10.5516 290.82 10.5516 307.411C10.5516 324.001 13.2808 339.691 18.7393 354.479C24.1978 369.266 32.0931 382.154 42.4497 393.19C52.8062 404.226 65.4289 412.923 80.3179 419.282C95.2069 425.64 112.094 428.832 130.98 428.832C147.355 428.832 161.903 427.127 174.647 423.716C187.392 420.305 199.089 415.993 209.787 410.755V315.938H130.395C128.616 315.938 127.154 314.476 127.154 312.697C127.154 310.919 128.616 309.457 130.395 309.457H217.292V414.848C207.715 420.086 195.653 424.861 181.056 429.173L181.081 429.197Z" fill="#EAF1FA" stroke="#EAF1FA" stroke-width="4" stroke-miterlimit="10"/>
<path d="M1234.59 194.2V425.446C1234.59 427.321 1233.06 428.856 1231.18 428.856H1230.5C1228.62 428.856 1227.09 427.321 1227.09 425.446V194.2H1148.28C1146.41 194.2 1144.87 192.665 1144.87 190.789C1144.87 188.913 1146.41 187.378 1148.28 187.378H1313.4C1315.28 187.378 1316.81 188.913 1316.81 190.789C1316.81 192.665 1315.28 194.2 1313.4 194.2H1234.59Z" fill="#EAF1FA" stroke="#EAF1FA" stroke-width="4" stroke-miterlimit="10"/>
<path d="M697.249 320.274C717.571 320.274 734.045 303.804 734.045 283.487C734.045 263.17 717.571 246.7 697.249 246.7C676.927 246.7 660.453 263.17 660.453 283.487C660.453 303.804 676.927 320.274 697.249 320.274Z" fill="#C85840"/>
<path d="M699.71 179.412C688.282 179.412 677.048 180.46 666.691 183.822C637.157 193.445 643.176 227.186 671.736 218.757C680.63 216.126 689.939 214.323 699.71 214.323C749.446 214.323 789.776 254.642 789.776 304.366C789.776 354.089 749.446 394.408 699.71 394.408C649.975 394.408 613.666 353.943 609.645 304.366C607.55 278.517 574.726 281.124 574.726 304.366C574.726 373.384 630.675 429.319 699.71 429.319C768.746 429.319 824.695 373.384 824.695 304.366C824.695 235.348 768.746 179.412 699.71 179.412Z" fill="#EAF1FA"/>
<path d="M589.517 254.009C599.508 260.757 620.757 241.925 623.267 239.684C629.262 234.373 640.544 224.36 638.522 212.861C637.279 205.796 631.674 201.679 631.114 201.314C624.193 196.417 616.005 198.317 613.081 198.999C598.777 202.312 591.856 216.028 590.419 218.879C584.765 230.061 581.597 248.674 589.493 254.009H589.517Z" fill="#406D96"/>
<path d="M556.206 244.898C553.208 234.008 553.818 197.537 581.037 164.941C601.092 140.92 625.265 131.345 641.373 124.963C654.483 119.773 654.434 121.527 727.222 104.62C748.593 99.6502 759.778 96.8973 773.424 89.4668C776.129 87.9807 799.109 75.2393 810.781 60.1104C811.39 59.3308 813.486 56.5535 813.754 56.7241C814.363 57.1139 805.517 73.1442 798.938 81.8902C792.456 90.4657 779.59 103.426 730.341 117.386C686.235 129.908 684.553 122.916 652.436 134.61C634.087 141.285 613.52 149.032 594.171 168.376C589.688 172.859 573.946 188.913 566.245 211.448C563.516 219.463 558.959 232.765 559.69 245.921C559.788 247.48 560.153 252.913 559.398 253.034C558.545 253.181 556.717 246.579 556.254 244.873L556.206 244.898Z" fill="#C85840"/>
<path d="M548.53 148.691C550.309 147.132 557.522 129.348 568.755 115.754C580.891 101.039 594.756 89.4912 602.116 84.838C622.512 71.9504 638.156 61.1823 677.876 49.659C692.449 45.42 728.221 36.3573 746.059 25.3212C746.059 25.3212 754.734 19.9372 770.963 2.05534C771.499 1.47065 772.498 0.32563 772.279 0.0576465C771.621 -0.770667 759.876 7.58556 758.487 8.56005C738.675 22.4465 686.04 31.1438 655.311 39.1102C596.511 54.3609 566.513 80.3066 558.837 87.3473C558.837 87.3473 539.124 105.375 531.228 133.441C527.11 148.107 530.741 151.639 531.764 152.467C534.079 154.343 538.856 155.123 541.95 153.539C543.364 152.833 545.849 150.884 546.239 150.592C546.239 150.592 547.433 149.666 548.53 148.691Z" fill="#406D96"/>
<path d="M284.305 184.577H284.28C281.118 184.577 278.554 187.14 278.554 190.302V423.618C278.554 426.78 281.118 429.344 284.28 429.344H284.305C287.467 429.344 290.031 426.78 290.031 423.618V190.302C290.031 187.14 287.467 184.577 284.305 184.577Z" fill="#EAF1FA"/>
<path d="M504.959 184.577H504.935C501.772 184.577 499.208 187.14 499.208 190.302V423.618C499.208 426.78 501.772 429.344 504.935 429.344H504.959C508.122 429.344 510.686 426.78 510.686 423.618V190.302C510.686 187.14 508.122 184.577 504.959 184.577Z" fill="#EAF1FA"/>
<path d="M310.208 311.796V313.575C310.208 316.252 312.379 318.423 315.057 318.423H479.835C482.514 318.423 484.685 316.252 484.685 313.575V311.796C484.685 309.119 482.514 306.948 479.835 306.948H315.057C312.379 306.948 310.208 309.119 310.208 311.796Z" fill="#EAF1FA"/>
<path d="M1039.31 214.469C1036.48 208.915 1016.33 193.371 990.472 191.496C982.528 190.911 949.948 188.572 933.743 212.325C926.091 223.532 922.558 239.855 927.992 253.96C933.548 268.383 946.244 274.717 970.344 286.264C1005 302.855 1017.45 300.102 1044.3 317.838C1062.53 329.897 1068.04 338.594 1070.86 345.123C1078.44 362.518 1073.67 379.304 1072.3 383.884C1063.11 414.507 1032.24 427.127 1025.64 429.831C991.861 443.62 960.329 431.755 949.534 427.687C910.715 413.07 891.586 382.471 884.202 370.265C884.202 370.265 866.438 341.762 863.368 306.388C863.27 305.316 863.002 302.197 863.368 302.124C863.904 302.027 865.536 308.824 865.756 309.774C867.461 316.717 878.354 350.166 904.233 378.329C914.858 389.877 931.623 408.124 960.183 416.846C969.321 419.623 996.126 427.809 1024.25 415.628C1033.65 411.559 1054.46 402.545 1060.34 381.18C1065.92 360.886 1054.15 343.662 1053.44 342.663C1046.88 333.405 1038.28 329.191 1031.56 326.048C985.184 304.439 969.832 306.558 946 290.771C933.548 282.537 917.587 271.964 912.348 252.255C906.962 231.986 915.126 210.328 928.163 196.733C946.049 178.072 970.003 177.828 985.331 177.682C985.331 177.682 1010.11 177.439 1046.96 199.17C1049.91 200.899 1054.78 204.091 1055.75 209.329C1055.83 209.743 1056.78 215.297 1053.05 218.27C1049.71 220.949 1044.76 219.804 1042.08 217.856C1040.26 216.54 1039.43 214.835 1039.28 214.518L1039.31 214.469Z" fill="#EAF1FA"/>
<path d="M302.678 491.443H309.306L326.462 552.543H326.657L344.104 491.443H352.292L369.74 552.543H369.935L387.09 491.443H393.718L373.639 560.436H365.743L348.296 499.044H348.101L330.653 560.436H322.758L302.678 491.443Z" fill="#EAF1FA"/>
<path d="M423.545 525.94C423.545 520.677 424.422 515.829 426.177 511.42C427.931 507.01 430.368 503.185 433.487 499.969C436.606 496.754 440.359 494.244 444.745 492.417C449.132 490.59 453.956 489.689 459.22 489.689C464.484 489.689 469.308 490.59 473.695 492.417C478.081 494.244 481.834 496.754 484.953 499.969C488.072 503.185 490.509 507.01 492.263 511.42C494.018 515.829 494.895 520.677 494.895 525.94C494.895 531.202 494.018 536.05 492.263 540.508C490.509 544.966 488.072 548.791 484.953 552.007C481.834 555.223 478.081 557.732 473.695 559.511C469.308 561.289 464.484 562.19 459.22 562.19C453.956 562.19 449.132 561.289 444.745 559.511C440.359 557.732 436.606 555.223 433.487 552.007C430.368 548.791 427.931 544.966 426.177 540.508C424.422 536.05 423.545 531.202 423.545 525.94ZM429.978 525.94C429.978 530.227 430.66 534.223 432.025 537.926C433.39 541.629 435.339 544.845 437.873 547.573C440.408 550.302 443.478 552.446 447.085 554.005C450.691 555.564 454.736 556.344 459.22 556.344C463.704 556.344 467.749 555.564 471.355 554.005C474.962 552.446 478.032 550.302 480.567 547.573C483.101 544.845 485.05 541.629 486.415 537.926C487.78 534.223 488.462 530.227 488.462 525.94C488.462 521.652 487.78 517.656 486.415 513.953C485.05 510.25 483.101 507.034 480.567 504.306C478.032 501.577 474.962 499.434 471.355 497.874C467.749 496.315 463.704 495.536 459.22 495.536C454.736 495.536 450.691 496.315 447.085 497.874C443.478 499.434 440.408 501.577 437.873 504.306C435.339 507.034 433.39 510.25 432.025 513.953C430.66 517.656 429.978 521.652 429.978 525.94Z" fill="#EAF1FA"/>
<path d="M533.689 491.443H551.819C552.721 491.443 553.964 491.467 555.523 491.54C557.083 491.613 558.764 491.808 560.592 492.125C562.42 492.442 564.272 492.978 566.148 493.684C568.024 494.391 569.73 495.438 571.217 496.802C572.703 498.167 573.946 499.896 574.921 501.967C575.895 504.038 576.383 506.572 576.383 509.568C576.383 512.881 575.822 515.61 574.677 517.754C573.532 519.898 572.118 521.627 570.388 522.967C568.658 524.307 566.757 525.282 564.686 525.94C562.615 526.597 560.616 527.036 558.74 527.304L578.82 560.436H571.509L552.112 527.694H540.123V560.436H533.689V491.443ZM540.123 521.847H553.769C557.156 521.847 559.885 521.433 562.005 520.58C564.125 519.727 565.758 518.704 566.928 517.461C568.097 516.219 568.902 514.903 569.316 513.466C569.73 512.029 569.949 510.738 569.949 509.568C569.949 508.399 569.73 507.108 569.316 505.67C568.902 504.233 568.097 502.917 566.928 501.675C565.758 500.432 564.125 499.409 562.005 498.556C559.885 497.704 557.156 497.29 553.769 497.29H540.123V521.847Z" fill="#EAF1FA"/>
<path d="M615.835 491.443H622.268V521.847H622.853L656.286 491.443H665.156L630.261 523.016L667.106 560.436H657.846L622.853 524.77H622.268V560.436H615.835V491.443Z" fill="#EAF1FA"/>
<path d="M701.611 547.671C703.292 550.594 705.486 552.762 708.19 554.2C710.895 555.637 713.966 556.344 717.402 556.344C719.546 556.344 721.569 556.027 723.445 555.369C725.321 554.711 726.978 553.81 728.367 552.64C729.756 551.471 730.877 550.058 731.681 548.401C732.486 546.745 732.9 544.869 732.9 542.798C732.9 540.386 732.388 538.413 731.389 536.854C730.39 535.295 729.025 534.003 727.344 533.005C725.662 532.006 723.762 531.129 721.642 530.422C719.522 529.716 717.353 528.985 715.111 528.278C712.869 527.572 710.7 526.743 708.58 525.842C706.46 524.941 704.56 523.747 702.878 522.285C701.197 520.823 699.832 518.996 698.833 516.779C697.834 514.562 697.322 511.834 697.322 508.594C697.322 505.548 697.931 502.82 699.125 500.457C700.319 498.094 701.952 496.096 703.999 494.512C706.046 492.929 708.41 491.711 711.066 490.907C713.722 490.103 716.524 489.689 719.449 489.689C723.226 489.689 726.71 490.346 729.927 491.686C733.144 493.026 735.922 495.243 738.261 498.362L732.705 502.357C731.072 500.091 729.172 498.386 727.003 497.241C724.834 496.096 722.251 495.536 719.254 495.536C717.182 495.536 715.184 495.804 713.308 496.364C711.431 496.924 709.774 497.728 708.385 498.8C706.996 499.872 705.875 501.212 705.023 502.844C704.17 504.476 703.755 506.377 703.755 508.594C703.755 512.029 704.633 514.684 706.387 516.536C708.142 518.387 710.335 519.849 712.967 520.921C715.598 521.993 718.45 522.943 721.544 523.747C724.639 524.551 727.49 525.647 730.122 527.011C732.754 528.376 734.947 530.276 736.701 532.712C738.456 535.148 739.333 538.51 739.333 542.798C739.333 545.917 738.748 548.669 737.579 551.081C736.409 553.493 734.825 555.515 732.851 557.172C730.877 558.828 728.587 560.071 725.979 560.924C723.372 561.776 720.691 562.19 717.889 562.19C713.332 562.19 709.141 561.386 705.315 559.803C701.489 558.219 698.199 555.54 695.47 551.763L701.611 547.671Z" fill="#EAF1FA"/>
<path d="M778.323 491.443H784.756V521.847H823.355V491.443H829.788V560.436H823.355V527.694H784.756V560.436H778.323V491.443Z" fill="#EAF1FA"/>
<path d="M868.583 525.94C868.583 520.677 869.46 515.829 871.214 511.42C872.969 507.01 875.406 503.185 878.525 499.969C881.644 496.754 885.397 494.244 889.783 492.417C894.169 490.59 898.994 489.689 904.258 489.689C909.521 489.689 914.346 490.59 918.732 492.417C923.119 494.244 926.871 496.754 929.991 499.969C933.11 503.185 935.546 507.01 937.301 511.42C939.056 515.829 939.933 520.677 939.933 525.94C939.933 531.202 939.056 536.05 937.301 540.508C935.546 544.966 933.11 548.791 929.991 552.007C926.871 555.223 923.119 557.732 918.732 559.511C914.346 561.289 909.521 562.19 904.258 562.19C898.994 562.19 894.169 561.289 889.783 559.511C885.397 557.732 881.644 555.223 878.525 552.007C875.406 548.791 872.969 544.966 871.214 540.508C869.46 536.05 868.583 531.202 868.583 525.94ZM875.016 525.94C875.016 530.227 875.698 534.223 877.063 537.926C878.427 541.629 880.377 544.845 882.911 547.573C885.445 550.302 888.516 552.446 892.122 554.005C895.729 555.564 899.774 556.344 904.258 556.344C908.741 556.344 912.787 555.564 916.393 554.005C920 552.446 923.07 550.302 925.604 547.573C928.139 544.845 930.088 541.629 931.453 537.926C932.817 534.223 933.5 530.227 933.5 525.94C933.5 521.652 932.817 517.656 931.453 513.953C930.088 510.25 928.139 507.034 925.604 504.306C923.07 501.577 920 499.434 916.393 497.874C912.787 496.315 908.741 495.536 904.258 495.536C899.774 495.536 895.729 496.315 892.122 497.874C888.516 499.434 885.445 501.577 882.911 504.306C880.377 507.034 878.427 510.25 877.063 513.953C875.698 517.656 875.016 521.652 875.016 525.94Z" fill="#EAF1FA"/>
<path d="M978.727 491.443H998.612C1001.02 491.443 1003.53 491.711 1006.17 492.271C1008.8 492.831 1011.21 493.782 1013.38 495.146C1015.55 496.51 1017.35 498.386 1018.74 500.749C1020.13 503.112 1020.84 506.084 1020.84 509.666C1020.84 512.784 1020.27 515.488 1019.13 517.754C1017.98 520.02 1016.47 521.895 1014.55 523.357C1012.62 524.819 1010.43 525.915 1007.92 526.622C1005.41 527.328 1002.8 527.694 1000.07 527.694H985.16V560.436H978.727V491.443ZM985.16 521.847H999.781C1001.61 521.847 1003.39 521.627 1005.14 521.213C1006.9 520.799 1008.46 520.117 1009.82 519.167C1011.19 518.217 1012.28 516.974 1013.14 515.415C1013.99 513.856 1014.4 511.931 1014.4 509.666C1014.4 507.4 1013.96 505.573 1013.09 504.014C1012.21 502.454 1011.06 501.163 1009.67 500.164C1008.29 499.166 1006.68 498.435 1004.85 497.972C1003.02 497.509 1001.22 497.29 999.391 497.29H985.16V521.847Z" fill="#EAF1FA"/>
<path d="M0 531.908H220.289" stroke="#EAF1FA" stroke-width="4" stroke-miterlimit="10"/>
<path d="M1107.12 531.908H1327.41" stroke="#EAF1FA" stroke-width="4" stroke-miterlimit="10"/>
<path d="M114.335 655.511C114.018 650.029 113.677 643.378 113.701 638.506H113.531C112.166 643.086 110.533 648.056 108.56 653.44L101.59 672.564H97.7401L91.3069 653.805C89.4306 648.226 87.8953 643.183 86.7988 638.506H86.6526C86.5064 643.427 86.2627 649.98 85.8728 655.9L84.8249 672.808H80L82.7536 633.39H89.2599L95.9612 652.465C97.5939 657.289 98.9098 661.626 99.9333 665.743H100.079C101.103 661.747 102.492 657.411 104.246 652.465L111.289 633.39H117.795L120.232 672.808H115.237L114.286 655.511H114.335Z" fill="#EAF1FA"/>
<path d="M145.599 660.432L141.53 672.808H136.242L149.644 633.39H155.761L169.237 672.808H163.802L159.587 660.432H145.624H145.599ZM158.563 656.461L154.664 645.108C153.811 642.526 153.227 640.187 152.642 637.921H152.496C151.935 640.236 151.326 642.623 150.546 645.035L146.672 656.436H158.588L158.563 656.461Z" fill="#EAF1FA"/>
<path d="M186.709 633.414H191.802V652.417H191.997C193.02 650.882 194.117 649.518 195.116 648.226L207.154 633.414H213.465L199.21 650.175L214.586 672.832H208.543L195.579 653.513L191.802 657.825V672.832H186.709V633.414Z" fill="#EAF1FA"/>
<path d="M235.202 633.414V672.832H230.084V633.414H235.202Z" fill="#EAF1FA"/>
<path d="M255.768 672.832V633.414H261.373L273.996 653.342C276.871 657.971 279.162 662.113 281.038 666.181L281.16 666.108C280.697 660.846 280.6 656.047 280.6 649.932V633.414H285.4V672.832H280.234L267.709 652.855C265.004 648.446 262.348 643.939 260.374 639.651L260.203 639.7C260.496 644.694 260.569 649.444 260.569 655.949V672.808H255.768V672.832Z" fill="#EAF1FA"/>
<path d="M335.989 671.054C333.698 671.906 329.19 673.222 323.877 673.222C317.907 673.222 312.961 671.711 309.135 668.008C305.748 664.744 303.652 659.506 303.652 653.367C303.652 641.6 311.766 633 324.974 633C329.531 633 333.137 633.999 334.843 634.803L333.576 638.944C331.48 637.994 328.849 637.263 324.877 637.263C315.324 637.263 309.037 643.208 309.037 653.099C309.037 662.99 315.032 669.007 324.267 669.007C327.606 669.007 329.848 668.544 331.042 667.935V656.193H323.073V652.124H336.062V671.029L335.989 671.054Z" fill="#EAF1FA"/>
<path d="M399.906 654.341H384.628V668.569H401.71V672.808H379.486V633.39H400.808V637.629H384.628V650.102H399.906V654.317V654.341Z" fill="#EAF1FA"/>
<path d="M429.197 672.832L416.282 633.414H421.814L427.93 652.855C429.611 658.166 431.074 662.965 432.146 667.57H432.292C433.389 663.014 435.021 658.044 436.776 652.928L443.453 633.438H448.887L434.802 672.856H429.173L429.197 672.832Z" fill="#EAF1FA"/>
<path d="M485.244 654.341H469.965V668.569H487.048V672.808H464.824V633.39H486.146V637.629H469.965V650.102H485.244V654.317V654.341Z" fill="#EAF1FA"/>
<path d="M505.299 633.95C507.882 633.438 511.586 633.097 515.095 633.097C520.505 633.097 524.063 634.121 526.524 636.338C528.473 638.067 529.619 640.747 529.619 643.841C529.619 649.006 526.305 652.465 522.186 653.878V654.025C525.184 655.072 527.011 657.923 527.962 662.015C529.253 667.521 530.204 671.297 530.983 672.832H525.695C525.086 671.687 524.185 668.325 523.112 663.404C521.943 658.02 519.798 655.925 515.193 655.754H510.368V672.832H505.275V633.95H505.299ZM510.392 651.881H515.583C521.041 651.881 524.477 648.908 524.477 644.401C524.477 639.285 520.773 637.068 515.412 637.044C512.951 637.044 511.245 637.263 510.368 637.483V651.881H510.392Z" fill="#EAF1FA"/>
<path d="M556.643 672.832V656.12L544.142 633.414H549.966L555.498 644.304C557.009 647.301 558.203 649.688 559.421 652.441H559.543C560.64 649.859 561.98 647.276 563.491 644.28L569.169 633.414H574.944L561.761 656.047V672.832H556.643Z" fill="#EAF1FA"/>
<path d="M600.677 637.702H588.663V633.39H617.856V637.702H605.794V672.808H600.677V637.702Z" fill="#EAF1FA"/>
<path d="M639.032 633.414V649.932H658.088V633.414H663.206V672.832H658.088V654.341H639.032V672.832H633.915V633.414H639.032Z" fill="#EAF1FA"/>
<path d="M688.865 633.414V672.832H683.748V633.414H688.865Z" fill="#EAF1FA"/>
<path d="M709.408 672.832V633.414H715.013L727.635 653.342C730.511 657.971 732.801 662.113 734.678 666.181L734.8 666.108C734.337 660.846 734.239 656.047 734.239 649.932V633.414H739.04V672.832H733.874L721.348 652.855C718.644 648.446 715.987 643.939 714.014 639.651L713.843 639.7C714.135 644.694 714.209 649.444 714.209 655.949V672.808H709.408V672.832Z" fill="#EAF1FA"/>
<path d="M789.653 671.054C787.362 671.906 782.854 673.222 777.542 673.222C771.571 673.222 766.625 671.711 762.799 668.008C759.412 664.744 757.316 659.506 757.316 653.367C757.316 641.6 765.431 633 778.638 633C783.195 633 786.801 633.999 788.507 634.803L787.24 638.944C785.144 637.994 782.513 637.263 778.541 637.263C768.988 637.263 762.701 643.208 762.701 653.099C762.701 662.99 768.696 669.007 777.931 669.007C781.27 669.007 783.512 668.544 784.706 667.935V656.193H776.737V652.124H789.726V671.029L789.653 671.054Z" fill="#EAF1FA"/>
<path d="M805.614 680.043C806.905 676.535 808.465 670.323 809.123 666.035L814.849 665.45C813.46 670.445 810.902 676.901 809.245 679.654L805.614 680.043Z" fill="#EAF1FA"/>
<path d="M877.378 654.341H862.1V668.569H879.182V672.808H856.958V633.39H878.28V637.629H862.1V650.102H877.378V654.317V654.341Z" fill="#EAF1FA"/>
<path d="M906.669 672.832L893.754 633.414H899.286L905.402 652.855C907.083 658.166 908.545 662.965 909.618 667.57H909.764C910.86 663.014 912.493 658.044 914.248 652.928L920.925 633.438H926.359L912.274 672.856H906.645L906.669 672.832Z" fill="#EAF1FA"/>
<path d="M962.692 654.341H947.413V668.569H964.495V672.808H942.271V633.39H963.593V637.629H947.413V650.102H962.692V654.317V654.341Z" fill="#EAF1FA"/>
<path d="M982.771 633.95C985.354 633.438 989.058 633.097 992.567 633.097C997.977 633.097 1001.53 634.121 1004 636.338C1005.95 638.067 1007.09 640.747 1007.09 643.841C1007.09 649.006 1003.78 652.465 999.658 653.878V654.025C1002.66 655.072 1004.48 657.923 1005.43 662.015C1006.73 667.521 1007.68 671.297 1008.46 672.832H1003.17C1002.56 671.687 1001.66 668.325 1000.58 663.404C999.415 658.02 997.27 655.925 992.665 655.754H987.84V672.832H982.747V633.95H982.771ZM987.864 651.881H993.055C998.513 651.881 1001.95 648.908 1001.95 644.401C1001.95 639.285 998.245 637.068 992.884 637.044C990.423 637.044 988.717 637.263 987.84 637.483V651.881H987.864Z" fill="#EAF1FA"/>
<path d="M1034.12 672.832V656.12L1021.61 633.414H1027.44L1032.97 644.304C1034.48 647.301 1035.67 649.688 1036.89 652.441H1037.01C1038.11 649.859 1039.45 647.276 1040.96 644.28L1046.64 633.414H1052.42L1039.23 656.047V672.832H1034.12Z" fill="#EAF1FA"/>
<path d="M1076.74 672.832L1066.74 633.414H1072.13L1076.83 653.367C1077.98 658.288 1079.03 663.185 1079.73 666.985H1079.88C1080.51 663.063 1081.76 658.361 1083.1 653.294L1088.38 633.414H1093.67L1098.5 653.391C1099.59 658.117 1100.66 662.746 1101.25 666.912H1101.37C1102.15 662.6 1103.25 658.19 1104.49 653.294L1109.71 633.414H1114.94L1103.76 672.832H1098.45L1093.48 652.319C1092.23 647.252 1091.4 643.403 1090.87 639.432H1090.75C1090.09 643.378 1089.19 647.227 1087.7 652.319L1082.12 672.832H1076.76H1076.74Z" fill="#EAF1FA"/>
<path d="M1136.61 633.414V649.932H1155.66V633.414H1160.78V672.832H1155.66V654.341H1136.61V672.832H1131.49V633.414H1136.61Z" fill="#EAF1FA"/>
<path d="M1201.72 654.341H1186.44V668.569H1203.52V672.808H1181.3V633.39H1202.62V637.629H1186.44V650.102H1201.72V654.317V654.341Z" fill="#EAF1FA"/>
<path d="M1221.77 633.95C1224.36 633.438 1228.06 633.097 1231.57 633.097C1236.98 633.097 1240.54 634.121 1243 636.338C1244.95 638.067 1246.09 640.747 1246.09 643.841C1246.09 649.006 1242.78 652.465 1238.66 653.878V654.025C1241.66 655.072 1243.49 657.923 1244.44 662.015C1245.73 667.521 1246.68 671.297 1247.46 672.832H1242.17C1241.56 671.687 1240.66 668.325 1239.59 663.404C1238.42 658.02 1236.27 655.925 1231.67 655.754H1226.84V672.832H1221.75V633.95H1221.77ZM1226.87 651.881H1232.06C1237.52 651.881 1240.95 648.908 1240.95 644.401C1240.95 639.285 1237.25 637.068 1231.89 637.044C1229.43 637.044 1227.72 637.263 1226.84 637.483V651.881H1226.87Z" fill="#EAF1FA"/>
<path d="M1285.35 654.341H1270.07V668.569H1287.16V672.808H1264.93V633.39H1286.25V637.629H1270.07V650.102H1285.35V654.317V654.341Z" fill="#EAF1FA"/>
</svg>
